<svg width="24" height="24" viewBox="0 0 24 24" fill="none" xmlns="http://www.w3.org/2000/svg">
<path fill-rule="evenodd" clip-rule="evenodd" d="M22.2244 0H1.77026C0.793729 0 0 0.774821 0 1.73067V22.2682C0 23.224 0.793729 24 1.77026 24H22.2244C23.2027 24 24 23.224 24 22.2682V1.73008C24 0.774232 23.2033 0 22.2244 0ZM3.5559 8.99791H7.11943V20.451H3.5559V8.99791ZM5.33855 3.30469C6.47725 3.30469 7.40189 4.22928 7.40189 5.36852C7.40189 6.50834 6.47725 7.43294 5.33855 7.43294C4.19513 7.43294 3.27344 6.50834 3.27344 5.36852C3.27344 4.22928 4.19572 3.30469 5.33855 3.30469ZM12.7645 8.99711H9.35254V20.4502H12.9078V14.7859C12.9078 13.2916 13.1903 11.844 15.0425 11.844C16.8694 11.844 16.8924 13.5529 16.8924 14.8808V20.4502H20.4518V14.1691C20.4518 11.0845 19.7854 8.71289 16.1812 8.71289C14.4493 8.71289 13.2882 9.66225 12.8135 10.5627H12.7645V8.99711Z" fill="#0032FF"/>
</svg>
