<svg width="18" height="18" viewBox="0 0 18 18" fill="none" xmlns="http://www.w3.org/2000/svg">
<path d="M7.88964 1C4.08989 1 1 4.08853 1 7.88666C1 11.6848 4.08989 14.7733 7.88964 14.7733C9.62882 14.7733 11.2183 14.1246 12.4318 13.0586L16.2447 16.8699C16.4183 17.0434 16.6962 17.0434 16.8698 16.8699C17.0434 16.6964 17.0434 16.4117 16.8698 16.2381L13.0638 12.4338C14.1317 11.2204 14.7793 9.62638 14.7793 7.88666C14.7793 4.08853 11.6894 1 7.88964 1ZM7.88964 1.8886C11.209 1.8886 13.8903 4.56876 13.8903 7.88666C13.8903 11.2045 11.209 13.8847 7.88964 13.8847C4.57033 13.8847 1.88898 11.2045 1.88898 7.88666C1.88898 4.56876 4.57033 1.8886 7.88964 1.8886Z" fill="#0032FF" stroke="#0032FF" stroke-width="0.5"/>
</svg>
