<svg width="28" height="28" viewBox="0 0 28 28" fill="none" xmlns="http://www.w3.org/2000/svg">
<path d="M8.11508 0.0968769C6.64122 0.166413 5.63474 0.401619 4.75486 0.747362C3.84423 1.10225 3.07239 1.57848 2.30444 2.3492C1.53649 3.11992 1.06358 3.8923 0.711184 4.80431C0.370148 5.68612 0.139096 6.69343 0.0739921 8.1681C0.00888774 9.64278 -0.00551834 10.1168 0.0016847 13.8784C0.00888774 17.64 0.0255101 18.1115 0.0969864 19.5893C0.167355 21.0628 0.40173 22.069 0.747476 22.9492C1.10292 23.8598 1.5786 24.6314 2.3496 25.3996C3.1206 26.1678 3.89243 26.6396 4.80666 26.9926C5.68765 27.333 6.69525 27.5652 8.16965 27.6297C9.64406 27.6943 10.1186 27.7093 13.8792 27.7021C17.6397 27.6948 18.1132 27.6782 19.5906 27.6081C21.0681 27.538 22.069 27.302 22.9494 26.9579C23.8601 26.6017 24.6322 26.1268 25.3999 25.3555C26.1675 24.5843 26.6402 23.8113 26.9923 22.8988C27.3336 22.0178 27.5655 21.0102 27.6295 19.5369C27.694 18.0584 27.7093 17.5863 27.7021 13.8252C27.6949 10.0642 27.678 9.59263 27.6079 8.11547C27.5378 6.6383 27.3031 5.63514 26.9577 4.75444C26.6017 3.84382 26.1265 3.07282 25.3558 2.30404C24.5851 1.53526 23.8116 1.06291 22.8993 0.711624C22.0178 0.37059 21.0107 0.138156 19.5363 0.0744368C18.0619 0.0107181 17.5873 -0.00562718 13.8254 0.00157581C10.0635 0.0087788 9.59253 0.024847 8.11508 0.0968769ZM8.27687 25.1378C6.9263 25.0791 6.19297 24.8547 5.70427 24.6668C5.05711 24.4175 4.59611 24.1161 4.10908 23.6338C3.62204 23.1514 3.32284 22.6888 3.07018 22.043C2.88041 21.5543 2.65185 20.8218 2.58868 19.4713C2.51998 18.0115 2.50557 17.5733 2.49754 13.8751C2.4895 10.1769 2.50363 9.73919 2.56763 8.27892C2.62525 6.92947 2.85104 6.19531 3.0386 5.7069C3.28793 5.05891 3.58824 4.59874 4.07168 4.11199C4.55511 3.62523 5.01638 3.32548 5.66272 3.07282C6.15086 2.88222 6.88336 2.6556 8.23337 2.59133C9.6942 2.52207 10.1319 2.50822 13.8296 2.50018C17.5272 2.49215 17.9661 2.506 19.4274 2.57027C20.7769 2.629 21.5113 2.85257 21.9992 3.04124C22.6466 3.29057 23.1074 3.59005 23.5941 4.07431C24.0809 4.55857 24.3809 5.01818 24.6336 5.6659C24.8245 6.15265 25.0511 6.88486 25.1148 8.2357C25.1843 9.69652 25.2001 10.1345 25.2068 13.8319C25.2134 17.5292 25.2004 17.9683 25.1364 19.428C25.0774 20.7786 24.8535 21.5122 24.6654 22.0014C24.4161 22.6483 24.1155 23.1096 23.6318 23.5961C23.1481 24.0826 22.6874 24.3823 22.0408 24.635C21.5532 24.8253 20.8198 25.0525 19.4709 25.1167C18.0101 25.1854 17.5724 25.1998 13.8733 25.2079C10.1743 25.2159 9.73797 25.201 8.27714 25.1378M19.5693 6.44853C19.5698 6.77731 19.6679 7.09854 19.851 7.3716C20.0341 7.64466 20.2941 7.85728 20.5981 7.98256C20.9021 8.10785 21.2364 8.14018 21.5587 8.07546C21.8811 8.01074 22.177 7.85188 22.4091 7.61897C22.6411 7.38606 22.7989 7.08956 22.8624 6.76698C22.926 6.4444 22.8924 6.11022 22.766 5.80671C22.6396 5.50319 22.426 5.24398 22.1523 5.06186C21.8786 4.87973 21.557 4.78287 21.2282 4.78353C20.7874 4.78441 20.3651 4.96031 20.054 5.27254C19.7429 5.58477 19.5686 6.00777 19.5693 6.44853ZM6.73957 13.8657C6.74733 17.7941 9.93772 20.9714 13.8653 20.9639C17.7929 20.9565 20.9725 17.7664 20.965 13.838C20.9575 9.90956 17.7663 6.73138 13.8382 6.73914C9.91002 6.7469 6.73209 9.93782 6.73957 13.8657ZM9.23459 13.8607C9.23279 12.9474 9.50183 12.0542 10.0077 11.2939C10.5136 10.5335 11.2335 9.94029 12.0766 9.58914C12.9196 9.23799 13.8478 9.14471 14.7439 9.3211C15.6399 9.49749 16.4635 9.93563 17.1105 10.5801C17.7576 11.2246 18.199 12.0464 18.3789 12.9418C18.5589 13.8371 18.4692 14.7657 18.1214 15.6101C17.7736 16.4545 17.1832 17.1768 16.4249 17.6857C15.6666 18.1945 14.7744 18.4671 13.8612 18.4689C13.2548 18.4702 12.6541 18.352 12.0934 18.1211C11.5327 17.8902 11.0229 17.5511 10.5933 17.1232C10.1637 16.6952 9.82255 16.1869 9.58942 15.6271C9.35629 15.0673 9.23572 14.4671 9.23459 13.8607Z" fill="#0032FF"/>
</svg>
