<svg width="35" height="24" viewBox="0 0 35 24" fill="none" xmlns="http://www.w3.org/2000/svg">
<path fill-rule="evenodd" clip-rule="evenodd" d="M30.329 0.716129C31.8 1.12258 32.9613 2.28387 33.3484 3.75484C34.0645 6.42581 34.0645 12 34.0645 12C34.0645 12 34.0645 17.5742 33.3677 20.2452C32.9613 21.7355 31.8194 22.8968 30.3484 23.2839C27.6774 24 17.0323 24 17.0323 24C17.0323 24 6.3871 24 3.73548 23.2839C2.26452 22.8774 1.10323 21.7161 0.716129 20.2452C0 17.5742 0 12 0 12C0 12 0 6.42581 0.696774 3.75484C1.10323 2.26452 2.24516 1.10323 3.71613 0.716129C6.3871 0 17.0323 0 17.0323 0C17.0323 0 27.6774 0 30.329 0.716129ZM22.4521 12.0007L13.5488 6.92969V17.0716L22.4521 12.0007Z" fill="#0032FF"/>
</svg>
