<svg width="98" height="160" viewBox="0 0 98 160" fill="none" xmlns="http://www.w3.org/2000/svg">
<path d="M13.6562 146.722L1.16406 159.214" stroke="#0032FF" stroke-width="0.932836"/>
<path d="M21.9834 138.394L34.4756 125.902" stroke="#0032FF" stroke-width="0.932836"/>
<path d="M34.4766 146.722L21.9844 159.214" stroke="#0032FF" stroke-width="0.932836"/>
<path d="M1.16407 138.394L13.6563 125.902" stroke="#0032FF" stroke-width="0.932836"/>
<path d="M55.2974 146.722L42.8052 159.214" stroke="#0032FF" stroke-width="0.932836"/>
<path d="M63.6245 138.394L76.1167 125.902" stroke="#0032FF" stroke-width="0.932836"/>
<path d="M76.1167 146.722L63.6245 159.214" stroke="#0032FF" stroke-width="0.932836"/>
<path d="M42.8047 138.394L55.2969 125.902" stroke="#0032FF" stroke-width="0.932836"/>
<path d="M96.937 146.722L84.4448 159.214" stroke="#0032FF" stroke-width="0.932836"/>
<path d="M84.4448 138.394L96.937 125.902" stroke="#0032FF" stroke-width="0.932836"/>
<path d="M13.6562 105.081L1.16406 117.573" stroke="#0032FF" stroke-width="0.932836"/>
<path d="M21.9834 96.7534L34.4756 84.2612" stroke="#0032FF" stroke-width="0.932836"/>
<path d="M34.4756 105.081L21.9834 117.573" stroke="#0032FF" stroke-width="0.932836"/>
<path d="M1.16407 96.7534L13.6563 84.2612" stroke="#0032FF" stroke-width="0.932836"/>
<path d="M55.2964 105.081L42.8042 117.573" stroke="#0032FF" stroke-width="0.932836"/>
<path d="M63.6245 96.7534L76.1167 84.2612" stroke="#0032FF" stroke-width="0.932836"/>
<path d="M76.1157 105.081L63.6235 117.573" stroke="#0032FF" stroke-width="0.932836"/>
<path d="M42.8037 96.7534L55.2959 84.2612" stroke="#0032FF" stroke-width="0.932836"/>
<path d="M96.9375 105.081L84.4453 117.573" stroke="#0032FF" stroke-width="0.932836"/>
<path d="M84.4448 96.7534L96.937 84.2612" stroke="#0032FF" stroke-width="0.932836"/>
<path d="M13.6562 63.4407L1.16406 75.9329" stroke="#0032FF" stroke-width="0.932836"/>
<path d="M21.9844 55.1128L34.4766 42.6206" stroke="#0032FF" stroke-width="0.932836"/>
<path d="M34.4766 63.4407L21.9844 75.9329" stroke="#0032FF" stroke-width="0.932836"/>
<path d="M1.16407 55.1128L13.6563 42.6206" stroke="#0032FF" stroke-width="0.932836"/>
<path d="M55.2969 63.4407L42.8047 75.9329" stroke="#0032FF" stroke-width="0.932836"/>
<path d="M63.6255 55.1128L76.1177 42.6206" stroke="#0032FF" stroke-width="0.932836"/>
<path d="M76.1177 63.4407L63.6255 75.9329" stroke="#0032FF" stroke-width="0.932836"/>
<path d="M42.8047 55.1128L55.2969 42.6206" stroke="#0032FF" stroke-width="0.932836"/>
<path d="M96.9385 63.4407L84.4463 75.9329" stroke="#0032FF" stroke-width="0.932836"/>
<path d="M84.4463 55.1128L96.9385 42.6206" stroke="#0032FF" stroke-width="0.932836"/>
<path d="M13.6562 21.886L1.16406 34.3782" stroke="#0032FF" stroke-width="0.932836"/>
<path d="M21.9844 13.5581L34.4766 1.06593" stroke="#0032FF" stroke-width="0.932836"/>
<path d="M34.4766 21.886L21.9844 34.3782" stroke="#0032FF" stroke-width="0.932836"/>
<path d="M1.16407 13.5581L13.6563 1.06593" stroke="#0032FF" stroke-width="0.932836"/>
<path d="M55.2969 21.886L42.8047 34.3782" stroke="#0032FF" stroke-width="0.932836"/>
<path d="M63.6255 13.5581L76.1177 1.06593" stroke="#0032FF" stroke-width="0.932836"/>
<path d="M76.1177 21.886L63.6255 34.3782" stroke="#0032FF" stroke-width="0.932836"/>
<path d="M42.8047 13.5581L55.2969 1.06593" stroke="#0032FF" stroke-width="0.932836"/>
<path d="M96.9385 21.886L84.4463 34.3782" stroke="#0032FF" stroke-width="0.932836"/>
<path d="M84.4463 13.5581L96.9385 1.06593" stroke="#0032FF" stroke-width="0.932836"/>
</svg>
