<svg width="509" height="234" viewBox="0 0 509 234" fill="none" xmlns="http://www.w3.org/2000/svg">
<path d="M0.884766 19.1354L19.2233 0.796875" stroke="#0030F8" stroke-width="2"/>
<path d="M49.7886 31.3624L31.4501 49.7009" stroke="#0030F8" stroke-width="2"/>
<path d="M49.7868 19.1362L31.4482 0.797717" stroke="#0030F8" stroke-width="2"/>
<path d="M0.885604 31.3616L19.2241 49.7001" stroke="#0030F8" stroke-width="2"/>
<path d="M62.0142 19.1354L80.3527 0.796875" stroke="#0030F8" stroke-width="2"/>
<path d="M110.917 31.3624L92.579 49.7009" stroke="#0030F8" stroke-width="2"/>
<path d="M110.918 19.1365L92.5791 0.797961" stroke="#0030F8" stroke-width="2"/>
<path d="M62.015 31.3616L80.3535 49.7001" stroke="#0030F8" stroke-width="2"/>
<path d="M123.143 19.1354L141.482 0.796875" stroke="#0030F8" stroke-width="2"/>
<path d="M172.045 31.3624L153.707 49.7009" stroke="#0030F8" stroke-width="2"/>
<path d="M172.047 19.1362L153.708 0.797717" stroke="#0030F8" stroke-width="2"/>
<path d="M123.143 31.3616L141.481 49.7001" stroke="#0030F8" stroke-width="2"/>
<path d="M184.272 19.1354L202.611 0.796875" stroke="#0030F8" stroke-width="2"/>
<path d="M233.175 31.3624L214.837 49.7009" stroke="#0030F8" stroke-width="2"/>
<path d="M233.174 19.1365L214.836 0.797961" stroke="#0030F8" stroke-width="2"/>
<path d="M184.273 31.3616L202.612 49.7001" stroke="#0030F8" stroke-width="2"/>
<path d="M245.401 19.1354L263.739 0.796875" stroke="#0030F8" stroke-width="2"/>
<path d="M294.304 31.3624L275.966 49.7009" stroke="#0030F8" stroke-width="2"/>
<path d="M294.304 19.1365L275.966 0.797961" stroke="#0030F8" stroke-width="2"/>
<path d="M245.402 31.3616L263.741 49.7001" stroke="#0030F8" stroke-width="2"/>
<path d="M306.53 19.1354L324.868 0.796875" stroke="#0030F8" stroke-width="2"/>
<path d="M355.433 31.3624L337.095 49.7009" stroke="#0030F8" stroke-width="2"/>
<path d="M355.433 19.1365L337.094 0.797961" stroke="#0030F8" stroke-width="2"/>
<path d="M306.531 31.3616L324.869 49.7001" stroke="#0030F8" stroke-width="2"/>
<path d="M367.659 19.1354L385.997 0.796875" stroke="#0030F8" stroke-width="2"/>
<path d="M416.562 31.3624L398.223 49.7009" stroke="#0030F8" stroke-width="2"/>
<path d="M416.561 19.1365L398.223 0.797961" stroke="#0030F8" stroke-width="2"/>
<path d="M367.659 31.3616L385.998 49.7001" stroke="#0030F8" stroke-width="2"/>
<path d="M428.787 19.1354L447.126 0.796875" stroke="#0030F8" stroke-width="2"/>
<path d="M477.69 31.3624L459.351 49.7009" stroke="#0030F8" stroke-width="2"/>
<path d="M477.69 19.1365L459.351 0.797961" stroke="#0030F8" stroke-width="2"/>
<path d="M428.787 31.3616L447.126 49.7001" stroke="#0030F8" stroke-width="2"/>
<path d="M489.917 19.1356L508.255 0.797119" stroke="#0030F8" stroke-width="2"/>
<path d="M489.916 31.3616L508.254 49.7001" stroke="#0030F8" stroke-width="2"/>
<path d="M0.884766 80.2643L19.2233 61.9258" stroke="#0030F8" stroke-width="2"/>
<path d="M49.7876 92.4903L31.4491 110.829" stroke="#0030F8" stroke-width="2"/>
<path d="M49.7868 80.2651L31.4482 61.9266" stroke="#0030F8" stroke-width="2"/>
<path d="M0.885604 92.4895L19.2241 110.828" stroke="#0030F8" stroke-width="2"/>
<path d="M62.0137 80.2643L80.3522 61.9258" stroke="#0030F8" stroke-width="2"/>
<path d="M110.917 92.4903L92.5785 110.829" stroke="#0030F8" stroke-width="2"/>
<path d="M110.916 80.2651L92.5776 61.9266" stroke="#0030F8" stroke-width="2"/>
<path d="M62.0135 92.4895L80.3521 110.828" stroke="#0030F8" stroke-width="2"/>
<path d="M123.142 80.2643L141.481 61.9258" stroke="#0030F8" stroke-width="2"/>
<path d="M172.045 92.4913L153.706 110.83" stroke="#0030F8" stroke-width="2"/>
<path d="M172.044 80.2651L153.706 61.9266" stroke="#0030F8" stroke-width="2"/>
<path d="M123.143 92.4905L141.481 110.829" stroke="#0030F8" stroke-width="2"/>
<path d="M184.271 80.2643L202.609 61.9258" stroke="#0030F8" stroke-width="2"/>
<path d="M233.174 92.4903L214.835 110.829" stroke="#0030F8" stroke-width="2"/>
<path d="M233.173 80.2651L214.834 61.9266" stroke="#0030F8" stroke-width="2"/>
<path d="M184.27 92.4895L202.609 110.828" stroke="#0030F8" stroke-width="2"/>
<path d="M245.399 80.2643L263.738 61.9258" stroke="#0030F8" stroke-width="2"/>
<path d="M294.302 92.4913L275.964 110.83" stroke="#0030F8" stroke-width="2"/>
<path d="M294.302 80.2651L275.964 61.9266" stroke="#0030F8" stroke-width="2"/>
<path d="M245.4 92.4905L263.739 110.829" stroke="#0030F8" stroke-width="2"/>
<path d="M306.528 80.2643L324.866 61.9258" stroke="#0030F8" stroke-width="2"/>
<path d="M355.431 92.4903L337.093 110.829" stroke="#0030F8" stroke-width="2"/>
<path d="M355.431 80.2651L337.092 61.9266" stroke="#0030F8" stroke-width="2"/>
<path d="M306.529 92.4895L324.867 110.828" stroke="#0030F8" stroke-width="2"/>
<path d="M367.657 80.2643L385.996 61.9258" stroke="#0030F8" stroke-width="2"/>
<path d="M416.561 92.4903L398.222 110.829" stroke="#0030F8" stroke-width="2"/>
<path d="M416.561 80.2651L398.222 61.9266" stroke="#0030F8" stroke-width="2"/>
<path d="M367.658 92.4895L385.997 110.828" stroke="#0030F8" stroke-width="2"/>
<path d="M428.787 80.2643L447.125 61.9258" stroke="#0030F8" stroke-width="2"/>
<path d="M477.689 92.4903L459.351 110.829" stroke="#0030F8" stroke-width="2"/>
<path d="M477.689 80.2651L459.351 61.9266" stroke="#0030F8" stroke-width="2"/>
<path d="M428.787 92.4895L447.126 110.828" stroke="#0030F8" stroke-width="2"/>
<path d="M489.915 80.2643L508.254 61.9258" stroke="#0030F8" stroke-width="2"/>
<path d="M489.916 92.4905L508.254 110.829" stroke="#0030F8" stroke-width="2"/>
<path d="M0.884766 141.391L19.2233 123.053" stroke="#0030F8" stroke-width="2"/>
<path d="M49.7876 153.618L31.4491 171.957" stroke="#0030F8" stroke-width="2"/>
<path d="M49.7868 141.392L31.4482 123.054" stroke="#0030F8" stroke-width="2"/>
<path d="M0.885604 153.617L19.2241 171.956" stroke="#0030F8" stroke-width="2"/>
<path d="M62.0132 141.391L80.3517 123.053" stroke="#0030F8" stroke-width="2"/>
<path d="M110.917 153.618L92.578 171.957" stroke="#0030F8" stroke-width="2"/>
<path d="M110.917 141.392L92.5781 123.053" stroke="#0030F8" stroke-width="2"/>
<path d="M62.014 153.617L80.3525 171.956" stroke="#0030F8" stroke-width="2"/>
<path d="M123.142 141.391L141.481 123.053" stroke="#0030F8" stroke-width="2"/>
<path d="M172.045 153.618L153.707 171.957" stroke="#0030F8" stroke-width="2"/>
<path d="M172.046 141.392L153.707 123.054" stroke="#0030F8" stroke-width="2"/>
<path d="M123.142 153.617L141.48 171.956" stroke="#0030F8" stroke-width="2"/>
<path d="M184.271 141.391L202.61 123.053" stroke="#0030F8" stroke-width="2"/>
<path d="M233.175 153.618L214.836 171.957" stroke="#0030F8" stroke-width="2"/>
<path d="M233.174 141.392L214.835 123.053" stroke="#0030F8" stroke-width="2"/>
<path d="M184.272 153.617L202.61 171.956" stroke="#0030F8" stroke-width="2"/>
<path d="M245.401 141.391L263.739 123.053" stroke="#0030F8" stroke-width="2"/>
<path d="M294.304 153.618L275.966 171.957" stroke="#0030F8" stroke-width="2"/>
<path d="M294.305 141.392L275.967 123.053" stroke="#0030F8" stroke-width="2"/>
<path d="M245.401 153.617L263.739 171.956" stroke="#0030F8" stroke-width="2"/>
<path d="M306.531 141.391L324.869 123.053" stroke="#0030F8" stroke-width="2"/>
<path d="M355.435 153.618L337.096 171.957" stroke="#0030F8" stroke-width="2"/>
<path d="M355.434 141.392L337.095 123.053" stroke="#0030F8" stroke-width="2"/>
<path d="M306.531 153.617L324.87 171.956" stroke="#0030F8" stroke-width="2"/>
<path d="M367.66 141.391L385.999 123.053" stroke="#0030F8" stroke-width="2"/>
<path d="M416.563 153.618L398.224 171.957" stroke="#0030F8" stroke-width="2"/>
<path d="M416.563 141.392L398.225 123.053" stroke="#0030F8" stroke-width="2"/>
<path d="M367.661 153.617L385.999 171.956" stroke="#0030F8" stroke-width="2"/>
<path d="M428.79 141.391L447.129 123.053" stroke="#0030F8" stroke-width="2"/>
<path d="M477.693 153.618L459.354 171.957" stroke="#0030F8" stroke-width="2"/>
<path d="M477.693 141.392L459.355 123.054" stroke="#0030F8" stroke-width="2"/>
<path d="M428.788 153.617L447.127 171.956" stroke="#0030F8" stroke-width="2"/>
<path d="M489.919 141.391L508.257 123.053" stroke="#0030F8" stroke-width="2"/>
<path d="M489.919 153.617L508.257 171.956" stroke="#0030F8" stroke-width="2"/>
<path d="M0.884766 202.52L19.2233 184.182" stroke="#0030F8" stroke-width="2"/>
<path d="M49.7876 214.747L31.4491 233.086" stroke="#0030F8" stroke-width="2"/>
<path d="M49.7868 202.521L31.4482 184.182" stroke="#0030F8" stroke-width="2"/>
<path d="M0.885604 214.746L19.2241 233.085" stroke="#0030F8" stroke-width="2"/>
<path d="M62.0132 202.52L80.3517 184.182" stroke="#0030F8" stroke-width="2"/>
<path d="M110.915 214.746L92.5765 233.085" stroke="#0030F8" stroke-width="2"/>
<path d="M110.915 202.521L92.5767 184.183" stroke="#0030F8" stroke-width="2"/>
<path d="M62.013 214.746L80.3516 233.085" stroke="#0030F8" stroke-width="2"/>
<path d="M123.141 202.52L141.48 184.182" stroke="#0030F8" stroke-width="2"/>
<path d="M172.044 214.747L153.706 233.086" stroke="#0030F8" stroke-width="2"/>
<path d="M172.045 202.521L153.706 184.182" stroke="#0030F8" stroke-width="2"/>
<path d="M123.141 214.746L141.479 233.085" stroke="#0030F8" stroke-width="2"/>
<path d="M184.271 202.52L202.609 184.182" stroke="#0030F8" stroke-width="2"/>
<path d="M233.174 214.746L214.835 233.085" stroke="#0030F8" stroke-width="2"/>
<path d="M233.173 202.521L214.834 184.182" stroke="#0030F8" stroke-width="2"/>
<path d="M184.27 214.746L202.609 233.085" stroke="#0030F8" stroke-width="2"/>
<path d="M245.399 202.52L263.737 184.182" stroke="#0030F8" stroke-width="2"/>
<path d="M294.302 214.746L275.964 233.085" stroke="#0030F8" stroke-width="2"/>
<path d="M294.302 202.521L275.964 184.183" stroke="#0030F8" stroke-width="2"/>
<path d="M245.4 214.745L263.738 233.084" stroke="#0030F8" stroke-width="2"/>
<path d="M306.528 202.52L324.866 184.182" stroke="#0030F8" stroke-width="2"/>
<path d="M355.431 214.747L337.092 233.086" stroke="#0030F8" stroke-width="2"/>
<path d="M355.431 202.521L337.092 184.183" stroke="#0030F8" stroke-width="2"/>
<path d="M306.529 214.745L324.867 233.084" stroke="#0030F8" stroke-width="2"/>
<path d="M367.657 202.52L385.995 184.182" stroke="#0030F8" stroke-width="2"/>
<path d="M416.56 214.746L398.221 233.085" stroke="#0030F8" stroke-width="2"/>
<path d="M416.56 202.521L398.222 184.183" stroke="#0030F8" stroke-width="2"/>
<path d="M367.657 214.746L385.996 233.085" stroke="#0030F8" stroke-width="2"/>
<path d="M428.788 202.52L447.126 184.182" stroke="#0030F8" stroke-width="2"/>
<path d="M477.69 214.746L459.352 233.085" stroke="#0030F8" stroke-width="2"/>
<path d="M477.69 202.521L459.351 184.182" stroke="#0030F8" stroke-width="2"/>
<path d="M428.786 214.746L447.125 233.085" stroke="#0030F8" stroke-width="2"/>
<path d="M489.916 202.52L508.255 184.182" stroke="#0030F8" stroke-width="2"/>
<path d="M489.916 214.746L508.254 233.085" stroke="#0030F8" stroke-width="2"/>
</svg>
