<svg width="173" height="112" viewBox="0 0 173 112" fill="none" xmlns="http://www.w3.org/2000/svg">
<path d="M19.3385 19.3385L0.999999 0.999988" stroke="#0030F8" stroke-width="2"/>
<path d="M31.5661 19.3385L49.9046 1" stroke="#0030F8" stroke-width="2"/>
<path d="M19.3404 31.5647L1.00188 49.9032" stroke="#0030F8" stroke-width="2"/>
<path d="M31.5671 31.5647L49.9056 49.9032" stroke="#0030F8" stroke-width="2"/>
<path d="M80.2441 19.3385L61.9056 0.999988" stroke="#0030F8" stroke-width="2"/>
<path d="M92.4717 19.3385L110.81 1" stroke="#0030F8" stroke-width="2"/>
<path d="M80.246 31.5647L61.9075 49.9032" stroke="#0030F8" stroke-width="2"/>
<path d="M92.4727 31.5647L110.811 49.9032" stroke="#0030F8" stroke-width="2"/>
<path d="M141.15 19.3385L122.811 0.999988" stroke="#0030F8" stroke-width="2"/>
<path d="M153.377 19.3385L171.716 1" stroke="#0030F8" stroke-width="2"/>
<path d="M141.152 31.5647L122.813 49.9032" stroke="#0030F8" stroke-width="2"/>
<path d="M153.378 31.5647L171.717 49.9032" stroke="#0030F8" stroke-width="2"/>
<path d="M19.3385 80.2418L0.999999 61.9033" stroke="#0030F8" stroke-width="2"/>
<path d="M31.5661 80.2418L49.9046 61.9033" stroke="#0030F8" stroke-width="2"/>
<path d="M19.3404 92.468L1.00188 110.807" stroke="#0030F8" stroke-width="2"/>
<path d="M31.5671 92.468L49.9056 110.807" stroke="#0030F8" stroke-width="2"/>
<path d="M80.2441 80.2418L61.9056 61.9033" stroke="#0030F8" stroke-width="2"/>
<path d="M92.4717 80.2418L110.81 61.9033" stroke="#0030F8" stroke-width="2"/>
<path d="M80.246 92.468L61.9075 110.807" stroke="#0030F8" stroke-width="2"/>
<path d="M92.4727 92.468L110.811 110.807" stroke="#0030F8" stroke-width="2"/>
<path d="M141.15 80.2418L122.811 61.9033" stroke="#0030F8" stroke-width="2"/>
<path d="M153.377 80.2418L171.716 61.9033" stroke="#0030F8" stroke-width="2"/>
<path d="M141.152 92.468L122.813 110.807" stroke="#0030F8" stroke-width="2"/>
<path d="M153.378 92.468L171.717 110.807" stroke="#0030F8" stroke-width="2"/>
</svg>
