<svg width="516" height="175" viewBox="0 0 516 175" fill="none" xmlns="http://www.w3.org/2000/svg">
<path d="M0.855472 19.4408L19.4174 0.878903" stroke="#0030F8" stroke-width="2.02436"/>
<path d="M50.3555 31.817L31.7936 50.3789" stroke="#0030F8" stroke-width="2.02436"/>
<path d="M50.3549 19.4414L31.793 0.879523" stroke="#0030F8" stroke-width="2.02436"/>
<path d="M0.856084 31.8164L19.418 50.3783" stroke="#0030F8" stroke-width="2.02436"/>
<path d="M62.7305 19.4408L81.2924 0.878903" stroke="#0030F8" stroke-width="2.02436"/>
<path d="M112.229 31.817L93.6666 50.3789" stroke="#0030F8" stroke-width="2.02436"/>
<path d="M112.23 19.4414L93.668 0.879523" stroke="#0030F8" stroke-width="2.02436"/>
<path d="M62.7311 31.8164L81.293 50.3783" stroke="#0030F8" stroke-width="2.02436"/>
<path d="M124.604 19.4408L143.165 0.878903" stroke="#0030F8" stroke-width="2.02436"/>
<path d="M174.102 31.817L155.54 50.3789" stroke="#0030F8" stroke-width="2.02436"/>
<path d="M174.103 19.4414L155.541 0.879523" stroke="#0030F8" stroke-width="2.02436"/>
<path d="M124.604 31.8164L143.166 50.3783" stroke="#0030F8" stroke-width="2.02436"/>
<path d="M186.477 19.4408L205.038 0.878903" stroke="#0030F8" stroke-width="2.02436"/>
<path d="M235.975 31.817L217.413 50.3789" stroke="#0030F8" stroke-width="2.02436"/>
<path d="M235.976 19.4414L217.414 0.879523" stroke="#0030F8" stroke-width="2.02436"/>
<path d="M186.477 31.8164L205.039 50.3783" stroke="#0030F8" stroke-width="2.02436"/>
<path d="M248.35 19.4408L266.911 0.878903" stroke="#0030F8" stroke-width="2.02436"/>
<path d="M297.848 31.817L279.286 50.3789" stroke="#0030F8" stroke-width="2.02436"/>
<path d="M297.849 19.4414L279.287 0.879523" stroke="#0030F8" stroke-width="2.02436"/>
<path d="M248.35 31.8164L266.912 50.3783" stroke="#0030F8" stroke-width="2.02436"/>
<path d="M310.223 19.4408L328.785 0.878903" stroke="#0030F8" stroke-width="2.02436"/>
<path d="M359.721 31.817L341.159 50.3789" stroke="#0030F8" stroke-width="2.02436"/>
<path d="M359.722 19.4414L341.16 0.879523" stroke="#0030F8" stroke-width="2.02436"/>
<path d="M310.223 31.8164L328.785 50.3783" stroke="#0030F8" stroke-width="2.02436"/>
<path d="M372.096 19.4408L390.658 0.878903" stroke="#0030F8" stroke-width="2.02436"/>
<path d="M421.594 31.817L403.032 50.3789" stroke="#0030F8" stroke-width="2.02436"/>
<path d="M421.595 19.4414L403.033 0.879523" stroke="#0030F8" stroke-width="2.02436"/>
<path d="M372.096 31.8164L390.658 50.3783" stroke="#0030F8" stroke-width="2.02436"/>
<path d="M433.971 19.4408L452.533 0.878903" stroke="#0030F8" stroke-width="2.02436"/>
<path d="M483.469 31.817L464.907 50.3789" stroke="#0030F8" stroke-width="2.02436"/>
<path d="M483.47 19.4414L464.908 0.879523" stroke="#0030F8" stroke-width="2.02436"/>
<path d="M433.971 31.8164L452.533 50.3783" stroke="#0030F8" stroke-width="2.02436"/>
<path d="M495.844 19.4408L514.406 0.878903" stroke="#0030F8" stroke-width="2.02436"/>
<path d="M495.844 31.8164L514.406 50.3783" stroke="#0030F8" stroke-width="2.02436"/>
<path d="M0.855472 81.3138L19.4174 62.7519" stroke="#0030F8" stroke-width="2.02436"/>
<path d="M50.3535 93.6881L31.7916 112.25" stroke="#0030F8" stroke-width="2.02436"/>
<path d="M50.3549 81.3144L31.793 62.7526" stroke="#0030F8" stroke-width="2.02436"/>
<path d="M0.856084 93.6895L19.418 112.251" stroke="#0030F8" stroke-width="2.02436"/>
<path d="M62.7285 81.3138L81.2904 62.7519" stroke="#0030F8" stroke-width="2.02436"/>
<path d="M112.227 93.6881L93.6647 112.25" stroke="#0030F8" stroke-width="2.02436"/>
<path d="M112.228 81.3144L93.666 62.7526" stroke="#0030F8" stroke-width="2.02436"/>
<path d="M62.7291 93.6895L81.291 112.251" stroke="#0030F8" stroke-width="2.02436"/>
<path d="M124.604 81.3138L143.165 62.7519" stroke="#0030F8" stroke-width="2.02436"/>
<path d="M174.102 93.6901L155.54 112.252" stroke="#0030F8" stroke-width="2.02436"/>
<path d="M174.103 81.3144L155.541 62.7526" stroke="#0030F8" stroke-width="2.02436"/>
<path d="M124.604 93.6895L143.166 112.251" stroke="#0030F8" stroke-width="2.02436"/>
<path d="M186.477 81.3138L205.038 62.7519" stroke="#0030F8" stroke-width="2.02436"/>
<path d="M235.975 93.6881L217.413 112.25" stroke="#0030F8" stroke-width="2.02436"/>
<path d="M235.976 81.3144L217.414 62.7526" stroke="#0030F8" stroke-width="2.02436"/>
<path d="M186.477 93.6895L205.039 112.251" stroke="#0030F8" stroke-width="2.02436"/>
<path d="M248.35 81.3138L266.911 62.7519" stroke="#0030F8" stroke-width="2.02436"/>
<path d="M297.848 93.6901L279.286 112.252" stroke="#0030F8" stroke-width="2.02436"/>
<path d="M297.849 81.3144L279.287 62.7526" stroke="#0030F8" stroke-width="2.02436"/>
<path d="M248.35 93.6895L266.912 112.251" stroke="#0030F8" stroke-width="2.02436"/>
<path d="M310.223 81.3138L328.785 62.7519" stroke="#0030F8" stroke-width="2.02436"/>
<path d="M359.723 93.6881L341.161 112.25" stroke="#0030F8" stroke-width="2.02436"/>
<path d="M359.722 81.3144L341.16 62.7526" stroke="#0030F8" stroke-width="2.02436"/>
<path d="M310.223 93.6895L328.785 112.251" stroke="#0030F8" stroke-width="2.02436"/>
<path d="M372.098 81.3138L390.66 62.7519" stroke="#0030F8" stroke-width="2.02436"/>
<path d="M421.598 93.6881L403.036 112.25" stroke="#0030F8" stroke-width="2.02436"/>
<path d="M421.597 81.3144L403.035 62.7526" stroke="#0030F8" stroke-width="2.02436"/>
<path d="M372.098 93.6895L390.66 112.251" stroke="#0030F8" stroke-width="2.02436"/>
<path d="M433.973 81.3138L452.535 62.7519" stroke="#0030F8" stroke-width="2.02436"/>
<path d="M483.471 93.6881L464.909 112.25" stroke="#0030F8" stroke-width="2.02436"/>
<path d="M483.472 81.3144L464.91 62.7526" stroke="#0030F8" stroke-width="2.02436"/>
<path d="M433.973 93.6895L452.535 112.251" stroke="#0030F8" stroke-width="2.02436"/>
<path d="M495.846 81.3138L514.408 62.7519" stroke="#0030F8" stroke-width="2.02436"/>
<path d="M495.846 93.6895L514.408 112.251" stroke="#0030F8" stroke-width="2.02436"/>
<path d="M0.855472 143.185L19.4174 124.623" stroke="#0030F8" stroke-width="2.02436"/>
<path d="M50.3535 155.561L31.7916 174.123" stroke="#0030F8" stroke-width="2.02436"/>
<path d="M50.3549 143.186L31.793 124.624" stroke="#0030F8" stroke-width="2.02436"/>
<path d="M0.856084 155.561L19.418 174.122" stroke="#0030F8" stroke-width="2.02436"/>
<path d="M62.7285 143.185L81.2904 124.623" stroke="#0030F8" stroke-width="2.02436"/>
<path d="M112.227 155.561L93.6647 174.123" stroke="#0030F8" stroke-width="2.02436"/>
<path d="M112.228 143.186L93.666 124.624" stroke="#0030F8" stroke-width="2.02436"/>
<path d="M62.7291 155.561L81.291 174.122" stroke="#0030F8" stroke-width="2.02436"/>
<path d="M124.602 143.185L143.163 124.623" stroke="#0030F8" stroke-width="2.02436"/>
<path d="M174.1 155.561L155.538 174.123" stroke="#0030F8" stroke-width="2.02436"/>
<path d="M174.101 143.186L155.539 124.624" stroke="#0030F8" stroke-width="2.02436"/>
<path d="M124.602 155.561L143.164 174.122" stroke="#0030F8" stroke-width="2.02436"/>
<path d="M186.477 143.185L205.038 124.623" stroke="#0030F8" stroke-width="2.02436"/>
<path d="M235.977 155.561L217.415 174.123" stroke="#0030F8" stroke-width="2.02436"/>
<path d="M235.976 143.186L217.414 124.624" stroke="#0030F8" stroke-width="2.02436"/>
<path d="M186.477 155.561L205.039 174.122" stroke="#0030F8" stroke-width="2.02436"/>
<path d="M248.35 143.185L266.911 124.623" stroke="#0030F8" stroke-width="2.02436"/>
<path d="M297.848 155.561L279.286 174.123" stroke="#0030F8" stroke-width="2.02436"/>
<path d="M297.851 143.186L279.289 124.624" stroke="#0030F8" stroke-width="2.02436"/>
<path d="M248.35 155.561L266.912 174.122" stroke="#0030F8" stroke-width="2.02436"/>
<path d="M310.227 143.185L328.788 124.623" stroke="#0030F8" stroke-width="2.02436"/>
<path d="M359.727 155.561L341.165 174.123" stroke="#0030F8" stroke-width="2.02436"/>
<path d="M359.726 143.186L341.164 124.624" stroke="#0030F8" stroke-width="2.02436"/>
<path d="M310.227 155.561L328.789 174.122" stroke="#0030F8" stroke-width="2.02436"/>
<path d="M372.102 143.185L390.663 124.623" stroke="#0030F8" stroke-width="2.02436"/>
<path d="M421.6 155.561L403.038 174.123" stroke="#0030F8" stroke-width="2.02436"/>
<path d="M421.601 143.186L403.039 124.624" stroke="#0030F8" stroke-width="2.02436"/>
<path d="M372.102 155.561L390.664 174.122" stroke="#0030F8" stroke-width="2.02436"/>
<path d="M433.977 143.185L452.538 124.623" stroke="#0030F8" stroke-width="2.02436"/>
<path d="M483.475 155.561L464.913 174.123" stroke="#0030F8" stroke-width="2.02436"/>
<path d="M483.476 143.186L464.914 124.624" stroke="#0030F8" stroke-width="2.02436"/>
<path d="M433.975 155.561L452.537 174.122" stroke="#0030F8" stroke-width="2.02436"/>
<path d="M495.85 143.185L514.411 124.623" stroke="#0030F8" stroke-width="2.02436"/>
<path d="M495.85 155.561L514.412 174.122" stroke="#0030F8" stroke-width="2.02436"/>
</svg>
