<svg width="106" height="106" viewBox="0 0 106 106" fill="none" xmlns="http://www.w3.org/2000/svg">
<path fill-rule="evenodd" clip-rule="evenodd" d="M25.707 24.2928L1.70703 0.292847L0.292816 1.70706L24.2928 25.7071L25.707 24.2928ZM24.2928 65.707L0.292801 41.707L1.70702 40.2928L25.707 64.2928L24.2928 65.707ZM24.2928 80.2929L0.292809 104.293L1.70702 105.707L25.707 81.7071L24.2928 80.2929ZM104.293 80.2929L80.2928 104.293L81.707 105.707L105.707 81.7071L104.293 80.2929ZM40.2928 104.293L64.2928 80.2929L65.707 81.7071L41.707 105.707L40.2928 104.293ZM41.707 0.292847L65.707 24.2928L64.2928 25.7071L40.2928 1.70706L41.707 0.292847ZM80.2928 41.7071L104.293 65.7071L105.707 64.2928L81.707 40.2928L80.2928 41.7071ZM81.707 0.292856L105.707 24.2929L104.293 25.7071L80.2928 1.70707L81.707 0.292856ZM40.2928 41.7071L64.2928 65.7071L65.707 64.2928L41.707 40.2929L40.2928 41.7071Z" fill="white"/>
</svg>
