<svg width="520" height="123" viewBox="0 0 520 123" fill="none" xmlns="http://www.w3.org/2000/svg">
<path d="M284.087 21.0435L264 0.956035" stroke="#0032FF" stroke-width="2"/>
<path d="M297.478 34.4355L317.566 54.523" stroke="#0032FF" stroke-width="2"/>
<path d="M317.566 21.0435L297.479 0.956037" stroke="#0032FF" stroke-width="2"/>
<path d="M264.001 34.4355L284.088 54.523" stroke="#0032FF" stroke-width="2"/>
<path d="M351.045 21.0435L330.958 0.956035" stroke="#0032FF" stroke-width="2"/>
<path d="M364.437 34.4355L384.525 54.523" stroke="#0032FF" stroke-width="2"/>
<path d="M384.525 21.0435L364.437 0.956037" stroke="#0032FF" stroke-width="2"/>
<path d="M330.958 34.4355L351.045 54.523" stroke="#0032FF" stroke-width="2"/>
<path d="M418.004 21.0435L397.917 0.956035" stroke="#0032FF" stroke-width="2"/>
<path d="M431.395 34.4355L451.483 54.523" stroke="#0032FF" stroke-width="2"/>
<path d="M451.482 21.0435L431.395 0.956037" stroke="#0032FF" stroke-width="2"/>
<path d="M397.917 34.4355L418.005 54.523" stroke="#0032FF" stroke-width="2"/>
<path d="M484.962 21.0435L464.875 0.956035" stroke="#0032FF" stroke-width="2"/>
<path d="M498.353 34.4355L518.44 54.523" stroke="#0032FF" stroke-width="2"/>
<path d="M518.44 21.0435L498.353 0.956037" stroke="#0032FF" stroke-width="2"/>
<path d="M464.875 34.4355L484.962 54.523" stroke="#0032FF" stroke-width="2"/>
<path d="M284.087 101.392L264 121.479" stroke="#0032FF" stroke-width="2"/>
<path d="M297.479 87.9998L317.566 67.9123" stroke="#0032FF" stroke-width="2"/>
<path d="M317.565 101.392L297.478 121.479" stroke="#0032FF" stroke-width="2"/>
<path d="M264 87.9998L284.088 67.9123" stroke="#0032FF" stroke-width="2"/>
<path d="M351.046 101.392L330.958 121.48" stroke="#0032FF" stroke-width="2"/>
<path d="M364.438 88L384.525 67.9126" stroke="#0032FF" stroke-width="2"/>
<path d="M384.525 101.392L364.438 121.48" stroke="#0032FF" stroke-width="2"/>
<path d="M330.958 88L351.045 67.9126" stroke="#0032FF" stroke-width="2"/>
<path d="M418.004 101.392L397.917 121.479" stroke="#0032FF" stroke-width="2"/>
<path d="M431.396 87.9998L451.483 67.9123" stroke="#0032FF" stroke-width="2"/>
<path d="M451.482 101.392L431.395 121.479" stroke="#0032FF" stroke-width="2"/>
<path d="M397.917 87.9998L418.005 67.9123" stroke="#0032FF" stroke-width="2"/>
<path d="M484.962 101.392L464.875 121.479" stroke="#0032FF" stroke-width="2"/>
<path d="M498.354 87.9998L518.441 67.9123" stroke="#0032FF" stroke-width="2"/>
<path d="M518.44 101.392L498.353 121.479" stroke="#0032FF" stroke-width="2"/>
<path d="M464.876 87.9998L484.963 67.9123" stroke="#0032FF" stroke-width="2"/>
<path d="M20.0874 21.0435L-8.78049e-07 0.956035" stroke="#0032FF" stroke-width="2"/>
<path d="M33.4785 34.4355L53.5659 54.523" stroke="#0032FF" stroke-width="2"/>
<path d="M53.5659 21.0435L33.4785 0.956037" stroke="#0032FF" stroke-width="2"/>
<path d="M0.000952899 34.4355L20.0884 54.523" stroke="#0032FF" stroke-width="2"/>
<path d="M87.0449 21.0435L66.9575 0.956035" stroke="#0032FF" stroke-width="2"/>
<path d="M100.437 34.4355L120.525 54.523" stroke="#0032FF" stroke-width="2"/>
<path d="M120.525 21.0435L100.437 0.956037" stroke="#0032FF" stroke-width="2"/>
<path d="M66.958 34.4355L87.0454 54.523" stroke="#0032FF" stroke-width="2"/>
<path d="M154.004 21.0435L133.917 0.956035" stroke="#0032FF" stroke-width="2"/>
<path d="M167.395 34.4355L187.483 54.523" stroke="#0032FF" stroke-width="2"/>
<path d="M187.482 21.0435L167.395 0.956037" stroke="#0032FF" stroke-width="2"/>
<path d="M133.917 34.4355L154.005 54.523" stroke="#0032FF" stroke-width="2"/>
<path d="M220.962 21.0435L200.875 0.956035" stroke="#0032FF" stroke-width="2"/>
<path d="M234.353 34.4355L254.44 54.523" stroke="#0032FF" stroke-width="2"/>
<path d="M254.44 21.0435L234.353 0.956037" stroke="#0032FF" stroke-width="2"/>
<path d="M200.875 34.4355L220.962 54.523" stroke="#0032FF" stroke-width="2"/>
<path d="M20.0874 101.392L8.78049e-07 121.479" stroke="#0032FF" stroke-width="2"/>
<path d="M33.479 87.9998L53.5664 67.9123" stroke="#0032FF" stroke-width="2"/>
<path d="M53.5655 101.392L33.478 121.479" stroke="#0032FF" stroke-width="2"/>
<path d="M0.000464618 87.9998L20.0879 67.9123" stroke="#0032FF" stroke-width="2"/>
<path d="M87.0459 101.392L66.9585 121.48" stroke="#0032FF" stroke-width="2"/>
<path d="M100.438 88L120.525 67.9126" stroke="#0032FF" stroke-width="2"/>
<path d="M120.525 101.392L100.438 121.48" stroke="#0032FF" stroke-width="2"/>
<path d="M66.958 88L87.0454 67.9126" stroke="#0032FF" stroke-width="2"/>
<path d="M154.004 101.392L133.917 121.479" stroke="#0032FF" stroke-width="2"/>
<path d="M167.396 87.9998L187.483 67.9123" stroke="#0032FF" stroke-width="2"/>
<path d="M187.482 101.392L167.395 121.479" stroke="#0032FF" stroke-width="2"/>
<path d="M133.917 87.9998L154.005 67.9123" stroke="#0032FF" stroke-width="2"/>
<path d="M220.962 101.392L200.875 121.479" stroke="#0032FF" stroke-width="2"/>
<path d="M234.354 87.9998L254.441 67.9123" stroke="#0032FF" stroke-width="2"/>
<path d="M254.44 101.392L234.353 121.479" stroke="#0032FF" stroke-width="2"/>
<path d="M200.876 87.9998L220.963 67.9123" stroke="#0032FF" stroke-width="2"/>
</svg>
